<?xml version="1.0" encoding="UTF-8"?>
<svg id="_图层_1" fill="#cccccc" data-name="图层 1" xmlns="http://www.w3.org/2000/svg" viewBox="0 0 100 72">
  <g>
    <path d="m101.06,58.55l-7.28-.03,17.25-18.57-26.47-.09-3.7,3.98-7.28-.03,7.26-7.81h38.81s2.34,0,2.34,0l-20.94,22.54Zm-8.22-14.75l7.28.03-17.28,18.59,26.47.09,3.68-3.97,7.27.03-7.23,7.8-38.68-.13h-2.34s20.84-22.43,20.84-22.43Z"/>
    <path d="m51.06,58.55l-7.28-.03,17.25-18.57-26.47-.09-3.7,3.98-7.28-.03,7.26-7.81h38.81s2.34,0,2.34,0l-20.94,22.54Zm-8.22-14.75l7.28.03-17.28,18.59,26.47.09,3.68-3.97,7.27.03-7.23,7.8-38.68-.13h-2.34s20.84-22.43,20.84-22.43Z"/>
    <path d="m1.06,58.55l-7.28-.03,17.25-18.57-26.47-.09-3.7,3.98-7.28-.03,7.26-7.81H19.66s2.34,0,2.34,0L1.06,58.55Zm-8.22-14.75l7.28.03-17.28,18.59,26.47.09,3.68-3.97,7.27.03-7.23,7.8-38.68-.13h-2.34S-7.16,43.8-7.16,43.8Z"/>
  </g>
  <g>
    <path d="m79.06,22.55l-7.28-.03L89.04,3.95l-26.47-.09-3.7,3.98-7.28-.03L58.85,0h38.81S100,0,100,0l-20.94,22.54Zm-8.22-14.75l7.28.03-17.28,18.59,26.47.09,3.68-3.97,7.27.03-7.23,7.8-38.68-.13h-2.34s20.84-22.43,20.84-22.43Z"/>
    <path d="m29.06,22.55l-7.28-.03L39.04,3.95l-26.47-.09-3.7,3.98-7.28-.03L8.85,0h38.81S50,0,50,0l-20.94,22.54Zm-8.22-14.75l7.28.03L10.84,26.42l26.47.09,3.68-3.97,7.27.03-7.23,7.8-38.68-.13H0S20.84,7.8,20.84,7.8Z"/>
  </g>
</svg>