<?xml version="1.0" encoding="UTF-8"?>
<svg id="_图层_1" data-name="图层 1" xmlns="http://www.w3.org/2000/svg" viewBox="0 0 100 72">
  <defs>
    <style>
      .cls-1 {
        fill: none;
        stroke: #d9d9d9;
        stroke-miterlimit: 10;
        stroke-width: .1px;
      }
    </style>
  </defs>
  <g>
    <path class="cls-1" d="m105.46,83.35l-7.28-.03,17.25-18.57-26.47-.09-3.7,3.98-7.28-.03,7.26-7.81h38.81s2.34,0,2.34,0l-20.94,22.54Zm-8.22-14.75l7.28.03-17.28,18.59,26.47.09,3.68-3.97,7.27.03-7.23,7.8h-41.16l20.98-22.56Z"/>
    <path class="cls-1" d="m64.26,83.35l-7.28-.03,17.25-18.57-26.47-.09-3.7,3.98-7.28-.03,7.26-7.81h38.81s2.34,0,2.34,0l-20.94,22.54Zm-8.22-14.75l7.28.03-17.28,18.59,26.47.09,3.68-3.97,7.27.03-7.23,7.8h-41.16l20.98-22.56Z"/>
    <path class="cls-1" d="m23.06,83.35l-7.28-.03,17.25-18.57-26.47-.09-3.7,3.98-7.28-.03,7.26-7.81h38.81s2.34,0,2.34,0l-20.94,22.54Zm-8.22-14.75l7.28.03-17.28,18.59,26.47.09,3.68-3.97,7.27.03-7.23,7.8H-6.13l20.98-22.56Z"/>
  </g>
  <g>
    <path class="cls-1" d="m124.66,52.95l-7.28-.03,17.25-18.57-26.47-.09-3.7,3.98-7.28-.03,7.26-7.81h38.81s2.34,0,2.34,0l-20.94,22.54Zm-8.22-14.75l7.28.03-17.28,18.59,26.47.09,3.68-3.97,7.27.03-7.23,7.8h-41.16l20.98-22.56Z"/>
    <path class="cls-1" d="m83.46,52.95l-7.28-.03,17.25-18.57-26.47-.09-3.7,3.98-7.28-.03,7.26-7.81h38.81s2.34,0,2.34,0l-20.94,22.54Zm-8.22-14.75l7.28.03-17.28,18.59,26.47.09,3.68-3.97,7.27.03-7.23,7.8h-41.16l20.98-22.56Z"/>
    <path class="cls-1" d="m42.26,52.95l-7.28-.03,17.25-18.57-26.47-.09-3.7,3.98-7.28-.03,7.26-7.81h38.81s2.34,0,2.34,0l-20.94,22.54Zm-8.22-14.75l7.28.03-17.28,18.59,26.47.09,3.68-3.97,7.27.03-7.23,7.8H13.07l20.98-22.56Z"/>
    <path class="cls-1" d="m1.06,52.95l-7.28-.03,17.25-18.57-26.47-.09-3.7,3.98-7.28-.03,7.26-7.81H19.66s2.34,0,2.34,0L1.06,52.95Zm-8.22-14.75l7.28.03-17.28,18.59,26.47.09,3.68-3.97,7.27.03-7.23,7.8H-28.13L-7.16,38.2Z"/>
  </g>
  <g>
    <path class="cls-1" d="m102.66,22.55l-7.28-.03L112.64,3.95l-26.47-.09-3.7,3.98-7.28-.03L82.45,0h38.81S123.6,0,123.6,0l-20.94,22.54Zm-8.22-14.75l7.28.03-17.28,18.59,26.47.09,3.68-3.97,7.27.03-7.23,7.8h-41.16l20.98-22.56Z"/>
    <path class="cls-1" d="m61.46,22.55l-7.28-.03L71.44,3.95l-26.47-.09-3.7,3.98-7.28-.03L41.25,0h38.81S82.4,0,82.4,0l-20.94,22.54Zm-8.22-14.75l7.28.03-17.28,18.59,26.47.09,3.68-3.97,7.27.03-7.23,7.8h-41.16L53.24,7.8Z"/>
    <path class="cls-1" d="m20.26,22.55l-7.28-.03L30.24,3.95l-26.47-.09L.06,7.85l-7.28-.03L.05,0h38.81S41.2,0,41.2,0l-20.94,22.54ZM12.04,7.8l7.28.03L2.04,26.42l26.47.09,3.68-3.97,7.27.03-7.23,7.8H-8.93L12.04,7.8Z"/>
    <path class="cls-1" d="m-20.94,22.55l-7.28-.03L-10.96,3.95l-26.47-.09-3.7,3.98-7.28-.03L-41.15,0H-2.34S0,0,0,0l-20.94,22.54Zm-8.22-14.75l7.28.03-17.28,18.59,26.47.09,3.68-3.97,7.27.03-7.23,7.8h-41.16L-29.16,7.8Z"/>
  </g>
</svg>