<?xml version="1.0" encoding="UTF-8"?>
<svg id="_图层_2" data-name="图层 2" xmlns="http://www.w3.org/2000/svg" viewBox="0 0 389.78 623.95">
  <defs>
    <style>
      .cls-1 {
        fill: #231815;
        fill-rule: evenodd;
      }
    </style>
  </defs>
  <g id="_隔离模式" data-name="隔离模式">
    <path class="cls-1" d="m128.31,136.28c10.08,5.19,28.11,12.83,23.22,29.33,18.64-45.53-23.22-37.58-24.44-72.11-3.05,21.39-2.14,23.83,6.72,33,8.86,9.17,7.33,12.53-5.5,9.78ZM177.8,0c-13.14,17.72-4.89,27.19,0,42.17,6.72-22.31-3.97-27.81,0-42.17Zm66.6,201.67c21.69-17.42,8.55-25.36,18.94-39.11-18.33,11.61-21.08,19.25-18.94,39.11Zm-127.7-.61c-7.94,15.58-4.28,26.58,2.44,41.56,7.94-20.47-5.19-31.17-2.44-41.56Zm122.81-83.11c0-11.92,7.33-10.39,6.11-31.17-3.79,11-9.52,6.9-9.16,1.83.81-11.39,16.01-21.27,2.44-46.44,9.78,25.36-30.86,40.94.61,75.78ZM26.88,383.78c-8.94,7.77-12.03,6.4-11-1.22,1.64-12.08-4.58-26.58-15.89-28.72,16.35,12.68-.23,20.58,9.78,47.06,4.78,12.65,18.83,16.67,22,29.33,3.67-28.11-14.66-30.25-4.89-46.44Zm337.27-198c-38.49,47.97,14.97,54.39,12.83,76.39,10.69-23.53-28.72-43.08-12.83-76.39Zm-321.38,23.83c3.36-4.28,5.8-15.28-3.05-26.89.31,8.25-2.75,17.72,3.05,26.89Zm343.38,102.67c-9.16,14.67-9.16,29.33-6.11,54.39,17.72-25.36,5.8-34.83,6.11-54.39Zm-48.27,68.44c-13.65,2.65-12.42-21.19.61-27.5-19.69.86-15.2-12.41,6.72-26.28,16.43-10.39,29.97-33.27,18.33-63.56,2.24,61.72-58.45,41.76-26.88,6.11-26.74,7.86-17.74,40.97-29.94,32.39-18.6-13.09,25.36-44.25,27.49-73.94,3.51-48.92-24.41-74.73-12.83-107.56-30.55,44,10.39,71.19-1.83,78.22-13.37,7.69-20.16-29.94-48.88-4.89,17.72-13.44,43.18,27.74,34.83,47.06-7.57,17.51-17.11,2.44-13.44-3.67-13.75,11,.61,25.36-17.11,28.11-15.24,2.37-7.64-25.97-1.83-33-35.44,25.36-8.25,64.47-34.83,88.61,11.91-13.75,8.86-27.19-.61-37.28,2.44,26.28-9.67,31.07-12.22,15.28-3.36-20.78,35.74-47.06-5.5-87.39,12.22,21.08-2.74,46.62-11,29.33-19.55-40.94,60.49-68.75,7.94-129.56,6.62,18.79-8.9,21.35-17.11.61-8.07-20.42-8.74-74.17,24.44-91.67-90.43,36.36-16.5,126.2-29.94,165.61-13.44,39.42-50.41,49.81-36.05,4.28-58.96,57.44,13.75,67.83-16.5,113.67,5.35-12.58-.92-18.94-5.5-23.22,3.67,21.08-27.49,12.53-7.94-14.06-25.47,24.21.74,39.28-15.89,35.44-19.43-4.49,16.5-42.17-13.44-58.67,9.01,26.47-7.45,29.3-18.33,11.61-12.36-20.08-18.44-65.06,11.61-103.89-69.65,62.03-24.64,94.97-32.99,114.89-3.97,9.47-14.05-9.47-14.66-11,3.36,47.97,32.44,31.54,22.61,56.83-3.03,7.79-15.11,3.5-18.33-11-3.57-16.08-18.94-34.33-36.05-32.39,49.18,30.25,13.14,71.5,7.33,34.83-13.75,40.64,12.22,47.67,32.99,57.44,20.77,9.78,16.19,26.58,3.67,23.83,25.97,23.53-14.66,42.78-12.22-1.22-17.11,58.97,13.14,95.95,65.38,139.33,52.24,43.39,76.98,88.61,80.65,101.44,14.87-28.93,61.71-91.87,100.81-121.61,39.1-29.74,46.03-31.57,60.49-50.11-20.37,13.44-22.4,9.18-22,3.06.61-9.17,22.2-9.57,28.72-25.67-14.05,11.2-19.6,5.37-12.22,0,44.81-32.59-9.57-92.89,23.22-113.06-38.27,24.02-18.13,61.52-31.77,64.17Zm-69.7,132.16c-4.69,4.88-65.33,64.32-76.94,90.9-8.88-14.8-20.39-31.64-34.53-48.11-1.58-6.89-1.74-11.98-1.19-17.64,4.77,3.35,10.79,7.09,18.62,11.35,0-7.5-1.58-10.84-4.89-15.89,1.07,0,2.29-.15,5.5,0-3.97-1.99-9.12-4.12-17.27-7.75,2.32-10.07,6.17-23.01,1.39-50.92-.58,25.19-12.84,27.72-14.48,44.94-6.15-2.87-13.44-6.37-22.18-10.72,11.22,6.66,13.94,12.34,22.45,20.26.88,6.06,3,12.88,5.91,19.43-4.53-4.97-9.29-9.87-14.31-14.63-23.83-22.61-44.6-34.53-44.6-59.89,8.55,17.72,28.14-1.28,17.11-27.5-13.91-33.06,4.61-54.89,14.69-65.89-3.8,52.17,20.25,40.64,28.69,75.66,9.39-1.33,17.3-11.13,15.3-22.04,9.48,6.55,4.83,17.15,18,26-7.87-15.42,7.22-27.5-2-47,17.66,9.42,23.69,43.78,13.05,63.46,14.5-8.29,24.81-18.88,25.9-37.04,1.55-25.9,6.3-54.65,36.67-67.72-17.41,20.78-11.11,57.41,1.83,49.5,5.5-3.36-2.07-11.97-3.67-14.06,11,3.97,18.27,20.7,11,54.39-5.8,26.89,19.55,23.22,24.44,10.39,1.46,15.58-14.71,30.31-24.49,40.49Zm-55.55,20.62c-3.31,5.05-4.89,8.39-4.89,15.89,38.19-20.78,33.15-29.18,51.93-40.33-31.92,15.89-44.6,20.47-52.55,24.44,3.21-.15,4.43,0,5.5,0Z"/>
  </g>
</svg>