<?xml version="1.0" encoding="UTF-8"?>
<svg id="_图层_2" data-name="图层 2" xmlns="http://www.w3.org/2000/svg" viewBox="0 0 47.46 35.17">
  <defs>
    <style>
      .cls-1 {
        fill: #231815;
        fill-rule: evenodd;
      }
    </style>
  </defs>
  <g id="_图层_1-2" data-name="图层 1">
    <path class="cls-1" d="m44.14,1.71c-.44-1.12-1.55-1.84-2.75-1.69-1.45.18-2.48,1.55-2.31,3.06,0,.03,0,.07.01.1-2.26,1.18-3.91,2.17-10.87,4.44-3.72,1.21-6.92,4.86-7.21,7.7.65-.33,1.31-.16,1.31-.16-1.36.53-3.85,1.88-4.78,5.62-.76,3.05-1.26,3.94-3.49,4.04-2.9.12-3.42.74-4.68,2.17-1.26,1.43-3.59,4.53-5.4,4.9-1.81.36-2.39-.22-2.75.33-.36.54.66,1.08,1.7.86,1.04-.22,2.1-.42,2.44-.69-.79.7-1.78,1.28-3.15,1.44-1.75.2-2.35,1.12-1.04,1.32,1.31.21,3.98-.99,5.51-2.47,1.86-1.8,3.83-4.7,5.98-4.88,2.75-.22,5.7,1.84,13.71-7.66-.22,1-1.21,2.14-1.21,2.14,6.08.87,8.43-1.84,9.39-2.57.75-.58.96-.93.61-1.67-.89-1.88-.42-4.61,2.05-6.23-1.43,1.35-2.71,3.86-1.53,6.17.35.69.6.97.17,1.44-.65.71-.7,1.35-.48,1.52.22.17.92.1,1.61-.99.64-1.01,2.4-.48,2.4,1.18,0,1.53.96.66,1.05-.12.12-1.08-.87-1.67.12-1.21.65.3.78.6.96.28.21-.37-.27-1.11-1.35-1.3-.8-.14-.27-.49.17-.37.77.21,1.12-.3.25-.61-.86-.31-1.74-.24-1.51-1.55.51-3.02,2.81-3.87,2.02-6.49.71,1.11.55,2.61-.91,4.62,6.14-2.62,5.11-6.93,6.73-9.93,1.09-2.02.77-3.18-2.76-2.72Zm-2.26,2.62c-.84.1-1.6-.52-1.7-1.39-.1-.87.5-1.67,1.34-1.77.84-.1,1.6.52,1.7,1.39.1.87-.5,1.67-1.34,1.77ZM10.35,25.14c2.03-1.55,2.54-.79,4.18-1.07,1.93-.33,2.35-2.54,2.47-3.37-.14.32-.35.77-2.03.77-1.69,0-2.71-.69-4.99,1.58-2.53,2.51-5.2,5.13-7.02,4.69-.57-.14-1.65-.69-1.97.23-.32.93,1.38,1.02,2.48.77-.43.39-.9.67-2.3.8-1,.09-2,1.31-.11,1.34,4.12.06,7.25-4.21,9.29-5.76ZM41.72,1.38c-.5.06-.86.54-.81,1.06s.52.9,1.02.84c.5-.06.86-.54.81-1.06-.06-.53-.52-.9-1.02-.84Z"/>
  </g>
</svg>