<?xml version="1.0" encoding="UTF-8"?>
<svg id="_图层_2" data-name="图层 2" xmlns="http://www.w3.org/2000/svg" viewBox="0 0 30.27 29.52">
  <defs>
    <style>
      .cls-1 {
        fill: #ffffff;
      }
    </style>
  </defs>
  <g id="_图层_1-2" data-name="图层 1">
    <g>
      <path class="cls-1" d="m12.41,17.48c1.89-.23,3.24-2.02,3.02-3.99-.22-1.97-1.94-3.38-3.83-3.14-1.89.23-3.24,2.02-3.02,3.99.22,1.97,1.94,3.38,3.83,3.14Zm-.34-6.66c1.14-.14,2.17.7,2.3,1.89.13,1.18-.68,2.26-1.81,2.4-1.14.14-2.17-.7-2.3-1.89-.13-1.18.68-2.26,1.81-2.4Z"/>
      <path class="cls-1" d="m15.14,0C6.79,0,0,6.79,0,15.14c0,.93.1,1.84.26,2.72,2.23-1.05,3.96-1.99,5.87-2.99-.01-.07-.02-.15-.03-.22-.39-3.4,1.95-6.48,5.21-6.89,2.72-.34,5.22,1.29,6.21,3.81,7.96-1.02,8.69,1.58,6.23,6.13-1.87,3.46-2.18,7.71-3.89,11.82,6.05-1.99,10.43-7.68,10.43-14.38C30.27,6.79,23.48,0,15.14,0Z"/>
    </g>
  </g>
</svg>