<?xml version="1.0" encoding="UTF-8"?>
<svg id="_图层_2" data-name="图层 2" xmlns="http://www.w3.org/2000/svg" viewBox="0 0 43.11 5.98">
  <defs>
    <style>
      .cls-1 {
        fill: #231815;
      }
    </style>
  </defs>
  <g id="_图层_1-2" data-name="图层 1">
    <g>
      <path class="cls-1" d="m8.21.15l-1.76,5.69h-1.01l-1.33-4.21-1.33,4.21h-1.01L0,.15h1.04l1.25,4.32L3.63.15h.96l1.34,4.33L7.18.15h1.03Z"/>
      <path class="cls-1" d="m14.71.15v5.69h-.99v-.98c-.46.69-1.18,1.13-2.15,1.13-1.58,0-2.88-1.31-2.88-2.99s1.3-2.99,2.88-2.99c.97,0,1.69.43,2.15,1.13V.15h.99Zm-.99,2.84c0-1.16-.88-2.04-2.02-2.04s-2.01.88-2.01,2.04.88,2.04,2.01,2.04,2.02-.88,2.02-2.04Z"/>
      <path class="cls-1" d="m19.99,5.84l-1.59-2.15-1.6,2.15h-1.16l2.18-2.92L15.76.15h1.17l1.47,1.98,1.47-1.98h1.16l-2.05,2.75,2.17,2.93h-1.16Z"/>
      <path class="cls-1" d="m27.38.15v5.69h-.99v-.98c-.46.69-1.18,1.13-2.15,1.13-1.58,0-2.88-1.31-2.88-2.99s1.3-2.99,2.88-2.99c.97,0,1.69.43,2.15,1.13V.15h.99Zm-.99,2.84c0-1.16-.88-2.04-2.02-2.04s-2.01.88-2.01,2.04.88,2.04,2.01,2.04,2.02-.88,2.02-2.04Z"/>
    </g>
    <path class="cls-1" d="m31.04,4h1s0,0,0,0V1.07h-1.01V0h-.65v1.07h-1.01v2.94h1.01v1.14l-1.06.04v.71h0s0,0,0,0c.05,0,1.91.03,2.77-.36v-.69c-.34.17-.77.26-1.06.27v-1.11Zm0-2.22h.4v1.51h-.4v-1.51Zm-.65,1.51h-.41v-1.51h.41v1.51Zm3.99,1.14h1.26v-.71h-1.26v-.57h-.71v.57h-1.26v.71h1.26v.81h-1.36v.71h3.43v-.71h-1.36v-.81Zm5.11-3.74s-.02.1-.04.25h-2.11v2.55h5.16V.94h-2.34l.03-.25h2.62s0,0,0,0V.09h-5.78s0,0,0,0v.59s0,0,0,0h2.45Zm2.3.79v.16h-3.51s0,0,0,0v.49h3.52v.16h-3.52v.49h3.52v.16h-3.74v-1.46h3.74Zm-.28,3.78h0c.66-.36.99-.85.99-1.46h-4.06c0-.06,0-.21,0-.21h-.71c.04.47-.4.81-.47.85.26.39.39.58.39.58.07-.04.13-.08.2-.13,0,0,.35.31.58.39h0c-.16.01-1.08.05-1.71.06,0,.4.02.62.02.65,0,0,2.06-.03,3.25-.24,0,0,1.28.2,3.1.24h0s.01-.65.01-.65c-.11,0-1.27-.05-1.6-.07Zm-.56-.46c-.21.1-.52.19-.92.27-.15-.03-.29-.06-.43-.09-.36-.1-.62-.18-.77-.26-.09-.04-.14-.06-.15-.06h-.58c.04-.05.09-.12.14-.2h3.29s-.11.09-.18.14c-.14.09-.27.16-.4.21Zm-6.57-3.45h1.26v-.71h-1.26V.06h-.71v.57h-1.26v.71h1.26v.81h-1.36v.71s0,0,0,0h3.42v-.71h-1.36v-.81Z"/>
  </g>
</svg>